<svg xmlns="http://www.w3.org/2000/svg" width="12.749" height="12.615" viewBox="0 0 12.749 12.615">
  <path id="Icon_awesome-calendar-alt" data-name="Icon awesome-calendar-alt" d="M0,11.432a1.285,1.285,0,0,0,1.366,1.183H11.383a1.285,1.285,0,0,0,1.366-1.183V4.73H0ZM9.106,6.6a.322.322,0,0,1,.341-.3h1.138a.322.322,0,0,1,.341.3v.986a.322.322,0,0,1-.341.3H9.448a.322.322,0,0,1-.341-.3Zm0,3.154a.322.322,0,0,1,.341-.3h1.138a.322.322,0,0,1,.341.3v.986a.322.322,0,0,1-.341.3H9.448a.322.322,0,0,1-.341-.3ZM5.464,6.6a.322.322,0,0,1,.341-.3H6.944a.322.322,0,0,1,.341.3v.986a.322.322,0,0,1-.341.3H5.805a.322.322,0,0,1-.341-.3Zm0,3.154a.322.322,0,0,1,.341-.3H6.944a.322.322,0,0,1,.341.3v.986a.322.322,0,0,1-.341.3H5.805a.322.322,0,0,1-.341-.3ZM1.821,6.6a.322.322,0,0,1,.341-.3H3.3a.322.322,0,0,1,.341.3v.986a.322.322,0,0,1-.341.3H2.163a.322.322,0,0,1-.341-.3Zm0,3.154a.322.322,0,0,1,.341-.3H3.3a.322.322,0,0,1,.341.3v.986a.322.322,0,0,1-.341.3H2.163a.322.322,0,0,1-.341-.3Zm9.562-8.18H10.017V.394A.429.429,0,0,0,9.562,0H8.651A.429.429,0,0,0,8.2.394V1.577H4.553V.394A.429.429,0,0,0,4.1,0H3.187a.429.429,0,0,0-.455.394V1.577H1.366A1.285,1.285,0,0,0,0,2.759V3.942H12.749V2.759A1.285,1.285,0,0,0,11.383,1.577Z"/>
</svg>
