<svg xmlns="http://www.w3.org/2000/svg" xmlns:xlink="http://www.w3.org/1999/xlink" width="197" height="197" viewBox="0 0 197 197">
  <defs>
    <filter id="Rectangle_1554" x="0" y="0" width="197" height="197" filterUnits="userSpaceOnUse">
      <feOffset dy="3" input="SourceAlpha"/>
      <feGaussianBlur stdDeviation="11" result="blur"/>
      <feFlood flood-color="#00966b"/>
      <feComposite operator="in" in2="blur"/>
      <feComposite in="SourceGraphic"/>
    </filter>
  </defs>
  <g id="Group_9372" data-name="Group 9372" transform="translate(-211 -232)">
    <g id="Group_9369" data-name="Group 9369">
      <g id="Group_9371" data-name="Group 9371">
        <g transform="matrix(1, 0, 0, 1, 211, 232)" filter="url(#Rectangle_1554)">
          <rect id="Rectangle_1554-2" data-name="Rectangle 1554" width="131" height="131" rx="23" transform="translate(33 30)" fill="#00966b"/>
        </g>
      </g>
    </g>
    <g id="Group_9370" data-name="Group 9370">
      <g id="Icon_feather-image" data-name="Icon feather-image" transform="translate(293.5 311.5)">
        <path id="Path_3235" data-name="Path 3235" d="M6.947,4.5H24.073A2.447,2.447,0,0,1,26.52,6.947V24.073a2.447,2.447,0,0,1-2.447,2.447H6.947A2.447,2.447,0,0,1,4.5,24.073V6.947A2.447,2.447,0,0,1,6.947,4.5Z" fill="none" stroke="#fff" stroke-linecap="round" stroke-linejoin="round" stroke-width="2"/>
        <path id="Path_3236" data-name="Path 3236" d="M14.17,12.335A1.835,1.835,0,1,1,12.335,10.5,1.835,1.835,0,0,1,14.17,12.335Z" transform="translate(-1.107 -1.107)" fill="none" stroke="#fff" stroke-linecap="round" stroke-linejoin="round" stroke-width="2"/>
        <path id="Path_3237" data-name="Path 3237" d="M27.073,21.117,20.956,15,7.5,28.456" transform="translate(-0.553 -1.937)" fill="none" stroke="#fff" stroke-linecap="round" stroke-linejoin="round" stroke-width="2"/>
      </g>
      <g id="Icon_feather-search" data-name="Icon feather-search" transform="translate(283.082 301.082)">
        <path id="Path_3238" data-name="Path 3238" d="M43.466,23.983A19.483,19.483,0,1,1,23.983,4.5,19.483,19.483,0,0,1,43.466,23.983Z" transform="translate(2.919 2.918)" fill="none" stroke="#fff" stroke-linecap="round" stroke-linejoin="round" stroke-width="3"/>
        <path id="Path_3239" data-name="Path 3239" d="M35.569,35.569,24.975,24.975" transform="translate(16.113 17.113)" fill="none" stroke="#fff" stroke-linecap="round" stroke-linejoin="round" stroke-width="3"/>
      </g>
    </g>
  </g>
</svg>
